<?xml version="1.0" encoding="UTF-8" standalone="no"?>
<!-- Generator: Adobe Illustrator 16.0.3, SVG Export Plug-In . SVG Version: 6.00 Build 0)  -->

<svg
   xmlns:dc="http://purl.org/dc/elements/1.1/"
   xmlns:cc="http://creativecommons.org/ns#"
   xmlns:rdf="http://www.w3.org/1999/02/22-rdf-syntax-ns#"
   xmlns:svg="http://www.w3.org/2000/svg"
   xmlns="http://www.w3.org/2000/svg"
   xmlns:sodipodi="http://sodipodi.sourceforge.net/DTD/sodipodi-0.dtd"
   xmlns:inkscape="http://www.inkscape.org/namespaces/inkscape"
   version="1.1"
   id="Premier_plan"
   x="0px"
   y="0px"
   width="300"
   height="300"
   viewBox="0 0 300 300"
   enable-background="new 0 0 311.811 311.811"
   xml:space="preserve"
   inkscape:version="0.91 r13725"
   sodipodi:docname="Logo_Funiculaire_Montmartre_RATP.svg"><metadata
     id="metadata35"><rdf:RDF><cc:Work
         rdf:about=""><dc:format>image/svg+xml</dc:format><dc:type
           rdf:resource="http://purl.org/dc/dcmitype/StillImage" /><dc:title></dc:title></cc:Work></rdf:RDF></metadata><defs
     id="defs33" /><sodipodi:namedview
     pagecolor="#ffffff"
     bordercolor="#666666"
     borderopacity="1"
     objecttolerance="10"
     gridtolerance="10"
     guidetolerance="10"
     inkscape:pageopacity="0"
     inkscape:pageshadow="2"
     inkscape:window-width="1280"
     inkscape:window-height="691"
     id="namedview31"
     showgrid="false"
     inkscape:zoom="0.41317346"
     inkscape:cx="154.57094"
     inkscape:cy="123.53869"
     inkscape:window-x="0"
     inkscape:window-y="1"
     inkscape:window-maximized="1"
     inkscape:current-layer="Premier_plan" /><g
     id="g4199"
     transform="matrix(0.96212129,0,0,0.9621182,9.6212129e-4,3.6132815e-7)"><rect
       y="3.4059999"
       x="3.4045"
       height="305"
       width="305"
       id="rect3376"
       style="fill:none" 
/><polygon
       points="234.04,303.312 30.905,217.005 8.501,217.005 8.501,248.733 33.415,248.733 162.717,303.312 "
       id="polygon5"
       style="fill:none" /><polygon
       points="240.433,303.312 246.827,303.312 31.923,212.005 8.501,212.005 8.501,214.505 8.501,217.005 30.905,217.005 234.04,303.312 "
       id="polygon7"
       style="fill:#ffffff" /><path
       d="m -0.001,0 0,311.812 311.811,0 L 311.81,0 -0.001,0 Z m 8.5,212.005 0.002,0 0,0 23.422,0 214.904,91.307 -84.11,0 -129.302,-54.579 -24.914,0 0,0 m 294.809,50.164 -220.359,-94.641 40.252,0 0.969,0 45.393,0 0,-64.628 c 0.799,0.169 2.807,0.869 4.027,-0.316 0.938,-0.907 -5.188,-5.774 -5.188,-5.774 l 0.008,0.045 c -0.85,-3.057 -1.365,-15.881 -15.193,-23.253 l -2.299,-3.668 0,-14.034 c 0,0 -2.922,-6.616 -4.066,-7.653 l -0.939,0 c -1.148,1.037 -4.064,7.653 -4.064,7.653 l 0,14.033 -2.299,3.668 c -13.768,7.338 -14.34,20.08 -15.186,23.21 -0.006,0.004 -0.084,0.066 -0.193,0.156 l 0,-32.082 c 1.273,0.267 4.459,1.38 6.4,-0.504 1.484,-1.441 -8.239,-9.17 -8.239,-9.17 l 0.01,0.07 c -1.352,-4.854 -2.17,-25.221 -24.135,-36.93 l -3.652,-5.826 0,-22.285 c 0,0 -4.639,-10.51 -6.457,-12.156 l -1.492,0 c -1.824,1.646 -6.457,12.156 -6.457,12.156 l 0,22.286 -3.648,5.826 c -21.866,11.654 -22.778,31.889 -24.12,36.862 -0.084,0.067 -9.711,7.731 -8.234,9.167 1.936,1.878 5.109,0.777 6.389,0.506 l 0,32.094 c -0.131,-0.104 -0.215,-0.172 -0.215,-0.172 l 0.008,0.045 c -0.85,-3.057 -1.365,-15.881 -15.195,-23.253 l -2.299,-3.668 0,-14.033 c 0,0 -2.922,-6.616 -4.066,-7.653 l -0.939,0 c -1.148,1.037 -4.064,7.653 -4.064,7.653 l 0,14.033 -2.299,3.668 c -7.553,4.026 -11.131,9.677 -12.965,14.476 l -0.005,0 0,-116.304 294.811,0 0,290.396 z"
       id="path9"
       inkscape:connector-curvature="0"
       style="fill:#000000" /><polygon
       points="30.901,181.901 303.31,298.897 303.31,296.177 303.31,293.457 32.401,177.104 31.929,176.901 8.501,176.901 8.501,179.401 8.501,181.901 "
       id="polygon11"
       style="fill:#ffffff" /><path
       style="fill:#000000"
       inkscape:connector-curvature="0"
       id="path17"
       d="m 271.657,168.395 c 0.023,0.027 0.047,0.07 0.059,0.104 0.238,0.173 0.258,0.173 -0.059,-0.104" /><g
       id="g4191"><path
         d="m 291.976,219.425 c -9.414,-32.198 -19.588,-49.34 -21.781,-53.813 0,0 -12.467,-12.151 -16.834,-13.246 -0.864,-0.338 -1.817,-0.628 -2.855,-0.809 -4.762,-0.848 -136.062,0 -136.062,0 0,0 -4.773,0.267 -6.74,4.782 0,0 -18.271,41.329 -17.697,64.64 0,0 3.619,14.914 7.578,18.296 3.936,3.358 93.4,39.87 93.4,39.87 l 76.959,3.687 0.002,-0.004 12.379,-8.697 c -0.002,-10e-4 9.279,-24.091 11.651,-54.706 z"
         id="path15"
         inkscape:connector-curvature="0"
         style="fill:#000000" /><g
         id="g19"><path
           d="m 109.941,163.079 36.852,0 0,51.715 -52.012,0 c 0,0 8.16,-40.183 15.16,-51.715"
           id="path21"
           inkscape:connector-curvature="0"
           style="fill:#ffffff" /><path
           d="m 250.962,163.079 -35.591,0 0,51.715 55.181,0 c 0,0 -5.826,-24.957 -19.59,-51.715"
           id="path23"
           inkscape:connector-curvature="0"
           style="fill:#ffffff" /><path
           d="m 261.028,163.079 c 4.74,9.951 14.564,31.096 19.326,51.535 l 0.076,0.18 8.285,0 c -3.773,-16.713 -11.295,-31.774 -17.861,-44.422 -3.531,-2.574 -9.826,-7.293 -9.826,-7.293"
           id="path25"
           inkscape:connector-curvature="0"
           style="fill:#ffffff" /><polygon
           points="176.641,231.197 176.641,163.079 158.357,163.079 158.357,231.197 100.669,231.197 114.169,234.964 252.454,234.964 265.94,231.197 204.34,231.197 204.34,163.079 186.066,163.079 186.066,231.197 "
           id="polygon27"
           style="fill:#ffffff" /></g></g><path
       sodipodi:nodetypes="ccccccccccc"
       d="m 260.68766,153.55367 c -19.45937,-0.62736 -146.90681,0.10389 -146.90681,0.10389 0,0 -2.95051,0.23718 -4.55953,3.11078 0,0 -18.630909,41.70351 -18.039909,65.71351 0,0 2.43036,11.7956 6.84871,17.47299 l -3.11343,3.41616 c -4.45617,-3.33273 -8.68071,-20.13711 -8.68071,-20.13711 -1.70909,-23.3496 18.521859,-67.66005 18.644989,-68.46588 3.00824,-6.05023 8.75291,-5.90461 8.75291,-5.90461 0,0 128.4058,-0.80688 147.86517,0.01 z"
       id="path3380"
       inkscape:connector-curvature="0"
       style="fill:#ffffff;stroke:none;stroke-width:1;stroke-miterlimit:4;stroke-dasharray:none" /></g></svg>